<?xml version="1.0" encoding="UTF-8"?>
<svg id="Layer_1" data-name="Layer 1" xmlns="http://www.w3.org/2000/svg" viewBox="0 0 32 32">
  <defs>
    <style>
      .cls-1 {
        fill: #fff23a;
      }
    </style>
  </defs>
  <path class="cls-1" d="M10.2,17.56L.5,11.97C1.82,6.98,5.41,2.94,10.2,1.08v16.47Z"/>
  <path class="cls-1" d="M12.12,11.64l-.04-11.17c4.91-1.21,10.08-.1,14,3.11l-13.96,8.06Z"/>
  <path class="cls-1" d="M14.35,22.14l-9.39,5.44C1.3,24.08-.54,19.08.13,13.92l14.22,8.22Z"/>
  <path class="cls-1" d="M31.83,18.25l-13.69-7.9,9.4-5.44c3.35,3.51,5.02,8.33,4.29,13.35Z"/>
  <path class="cls-1" d="M20.42,31.37c-4.76,1.37-9.87.48-13.93-2.52l13.91-8.03.02,10.55Z"/>
  <path class="cls-1" d="M31.43,20.19c-1.26,4.62-4.52,8.52-9.13,10.5v-15.76s9.13,5.26,9.13,5.26Z"/>
</svg>