<?xml version="1.0" encoding="UTF-8"?>
<svg id="Layer_1" data-name="Layer 1" xmlns="http://www.w3.org/2000/svg" viewBox="0 0 32 32">
  <defs>
    <style>
      .cls-1 {
        fill: #fff23a;
      }
    </style>
  </defs>
  <path class="cls-1" d="M30.51,6.85H10.36v-.42h-1.08v-.93h-3.69v.93h-1.08v.42H1.49c-.82,0-1.49.65-1.49,1.45v16.76c0,.8.67,1.45,1.49,1.45h29.03c.82,0,1.49-.65,1.49-1.45V8.3c0-.8-.67-1.45-1.49-1.45ZM1.49,8.3h3.01s5.86,0,5.86,0h0s20.15,0,20.15,0v5.91h-10.98c-1.01-.76-2.28-1.22-3.65-1.22s-2.64.46-3.65,1.22H1.49v-5.91ZM15.88,14.43c2.48,0,4.5,1.96,4.5,4.38s-2.02,4.38-4.5,4.38-4.5-1.96-4.5-4.38,2.02-4.38,4.5-4.38ZM30.51,25.05H1.49v-9.4h9.37c-.61.91-.96,1.99-.96,3.16,0,3.21,2.69,5.83,5.99,5.83s5.99-2.61,5.99-5.83c0-1.16-.36-2.25-.96-3.16h9.61v9.4Z"/>
  <path class="cls-1" d="M5.95,16.29c-1.43,0-2.58,1.13-2.58,2.51s1.16,2.51,2.58,2.51,2.58-1.13,2.58-2.51-1.16-2.51-2.58-2.51Z"/>
  <ellipse class="cls-1" cx="25.8" cy="18.81" rx="2.58" ry="2.51"/>
  <rect class="cls-1" x="24.44" y="9.62" width="4.91" height="3.38"/>
</svg>