<?xml version="1.0" encoding="UTF-8"?>
<svg id="Layer_1" data-name="Layer 1" xmlns="http://www.w3.org/2000/svg" viewBox="0 0 32 32">
  <defs>
    <style>
      .cls-1 {
        fill: #ed693c;
      }

      .cls-2 {
        fill: #fff23a;
      }
    </style>
  </defs>
  <path class="cls-2" d="M29,3v26H3V3h26M29,1H3c-1.1,0-2,.9-2,2v26c0,1.1.9,2,2,2h26c1.1,0,2-.9,2-2V3c0-1.1-.9-2-2-2h0Z"/>
  <path class="cls-1" d="M8.09,14.75v-3.15h-3.15v-2.7h3.15v-3.15h2.7v3.15h3.15v2.7h-3.15v3.15h-2.7Z"/>
  <path class="cls-1" d="M20.91,21.55h5.76v2.7h-5.76v-2.7Z"/>
  <rect class="cls-2" x="-2.38" y="15" width="36.77" height="2" transform="translate(-6.63 16) rotate(-45)"/>
</svg>