<?xml version="1.0" encoding="UTF-8"?>
<svg id="Layer_1" data-name="Layer 1" xmlns="http://www.w3.org/2000/svg" viewBox="0 0 32 32">
  <defs>
    <style>
      .cls-1 {
        fill: #fff23a;
      }
    </style>
  </defs>
  <path class="cls-1" d="M25.7,1.87L24.24,0l-1.92,1.39-7.39,5.37-.72.52-1.91,1.39-2.74,1.99-.48.35-4.19,3.04-2.73,1.99,2.73,1.99,4.21,3.06.62.45,2.31,1.68,10.17,7.39,1.88,1.37,1.47-1.81c2.72-3.34,4.28-8.54,4.28-14.26s-1.51-10.72-4.13-14.07ZM10.56,19.12l-4.21-3.06,4.19-3.05.48-.35c-.39.91-.64,2.03-.64,3.27,0,1.41.31,2.68.8,3.63l-.61-.45ZM23.65,28.64l-10.17-7.39h0,0c1.56-.15,2.8-2.46,2.8-5.31,0-2.69-1.1-4.89-2.54-5.26h0s1.91-1.39,1.91-1.39l.72-.52,7.39-5.37c2.18,2.78,3.61,7.36,3.61,12.55s-1.48,9.94-3.73,12.71Z"/>
</svg>