<?xml version="1.0" encoding="UTF-8"?>
<svg id="Layer_1" data-name="Layer 1" xmlns="http://www.w3.org/2000/svg" viewBox="0 0 32 32">
  <defs>
    <style>
      .cls-1 {
        fill: #ed693c;
      }

      .cls-2 {
        fill: #fff23a;
      }
    </style>
  </defs>
  <path class="cls-2" d="M30,8v16H2V8h28M32,6H0v20h32V6h0Z"/>
  <g>
    <path class="cls-1" d="M5.78,20.55v-9.1h1.95v9.1h-1.95Z"/>
    <path class="cls-1" d="M12.81,20.72c-.51,0-1-.08-1.47-.24-.47-.16-.88-.4-1.23-.7-.35-.31-.6-.67-.76-1.1l1.83-.68c.04.13.14.25.29.36.15.12.34.21.57.29.23.08.49.11.77.11.26,0,.5-.04.73-.11.23-.08.42-.18.56-.32s.21-.29.21-.47-.08-.33-.22-.45-.34-.21-.57-.29-.47-.12-.71-.16c-.66-.09-1.25-.25-1.77-.47-.52-.22-.93-.52-1.24-.91s-.45-.88-.45-1.47.16-1.07.48-1.49.74-.76,1.27-1,1.1-.36,1.71-.36c.51,0,1,.08,1.47.24.47.16.88.4,1.23.71s.6.68.75,1.11l-1.83.66c-.04-.13-.14-.25-.29-.36-.15-.11-.34-.21-.57-.28-.23-.07-.49-.11-.77-.11-.25,0-.49.03-.72.11-.23.08-.42.18-.57.32-.15.13-.22.29-.22.46,0,.23.07.41.21.52.14.11.32.2.55.24.23.05.48.09.75.13.62.09,1.2.25,1.72.49.52.23.94.55,1.26.94s.47.86.47,1.42-.16,1.06-.48,1.49c-.32.43-.74.76-1.26,1-.52.24-1.1.36-1.72.36Z"/>
    <path class="cls-1" d="M21.73,20.72c-.62,0-1.19-.12-1.74-.37-.54-.25-1.02-.58-1.43-1.02-.41-.43-.73-.93-.97-1.5-.23-.57-.35-1.18-.35-1.83s.12-1.26.35-1.83c.23-.57.56-1.07.97-1.5.41-.43.89-.77,1.43-1.02.54-.25,1.12-.37,1.74-.37s1.2.12,1.74.37c.54.24,1.02.58,1.43,1.02.41.43.73.94.97,1.5.23.57.35,1.18.35,1.83s-.12,1.26-.35,1.83c-.23.57-.55,1.07-.97,1.5-.41.43-.89.77-1.43,1.02-.54.25-1.12.37-1.74.37ZM21.73,18.77c.35,0,.67-.07.98-.22.31-.14.58-.34.81-.6s.42-.55.55-.88.2-.69.2-1.07-.07-.74-.2-1.07c-.13-.33-.32-.63-.55-.88-.23-.25-.5-.45-.81-.6-.31-.14-.63-.22-.98-.22s-.67.07-.98.22c-.31.15-.58.34-.81.6-.23.25-.42.55-.55.88-.13.33-.2.69-.2,1.07s.07.74.2,1.07c.13.33.31.63.55.88.23.25.5.45.81.6.31.15.63.22.98.22Z"/>
  </g>
</svg>