<?xml version="1.0" encoding="UTF-8"?>
<svg id="svg1291" xmlns="http://www.w3.org/2000/svg" version="1.1" xmlns:cc="http://creativecommons.org/ns#" xmlns:dc="http://purl.org/dc/elements/1.1/" xmlns:inkscape="http://www.inkscape.org/namespaces/inkscape" xmlns:rdf="http://www.w3.org/1999/02/22-rdf-syntax-ns#" xmlns:sodipodi="http://sodipodi.sourceforge.net/DTD/sodipodi-0.dtd" xmlns:svg="http://www.w3.org/2000/svg" viewBox="0 0 250 250">
  <!-- Generator: Adobe Illustrator 30.2.1, SVG Export Plug-In . SVG Version: 2.1.1 Build 1)  -->
  <defs>
    <style>
      .st0 {
        fill: #0a66c2;
      }
    </style>
  </defs>
  <sodipodi:namedview id="base" bordercolor="#666666" borderopacity="1.0" fit-margin-bottom="0" fit-margin-left="0" fit-margin-right="0" fit-margin-top="0" inkscape:current-layer="layer1" inkscape:cx="996.28572" inkscape:cy="-674.20459" inkscape:document-units="px" inkscape:pageopacity="0.0" inkscape:pageshadow="2" inkscape:window-height="1017" inkscape:window-maximized="1" inkscape:window-width="1920" inkscape:window-x="1912" inkscape:window-y="-6" inkscape:zoom="0.35" pagecolor="#ffffff" showgrid="false" units="px"/>
  <path class="st0" d="M231.89,0H18.85C8.65,0,0,8.06,0,17.99v214.01C0,241.94,5.68,250,15.87,250h213.05c10.2,0,21.08-8.06,21.08-18V17.99c0-9.93-7.9-17.99-18.11-17.99ZM71.43,214.29h-35.71v-119.05h35.71v119.05ZM53.58,75.89c-12.32,0-22.32-9.99-22.32-22.31,0-12.32,9.99-22.32,22.31-22.32s22.32,9.99,22.32,22.31c0,12.32-9.99,22.32-22.31,22.32ZM214.29,214.29h-35.71v-59.56c0-15.83-6.32-29.73-21.11-29.73-17.95,0-26.51,12.15-26.51,32.11v57.18h-35.71v-119.05h33.65v17.15h.37c5.13-9.25,20.29-18.64,39.02-18.64,35.96,0,46,19.1,46,54.46v66.07Z"/>
</svg>