<?xml version="1.0" encoding="UTF-8"?>
<svg id="Layer_1" data-name="Layer 1" xmlns="http://www.w3.org/2000/svg" viewBox="0 0 32 32">
  <defs>
    <style>
      .cls-1 {
        fill: #fff23a;
      }
    </style>
  </defs>
  <path class="cls-1" d="M16,31c-8.27,0-15-6.73-15-15,0-2.14.44-4.21,1.31-6.15.23-.5.82-.73,1.32-.5.5.23.73.82.5,1.32-.75,1.68-1.14,3.47-1.14,5.32,0,7.17,5.83,13,13,13s13-5.83,13-13S23.17,3,16,3c-2.1,0-4.11.49-5.96,1.45-.49.25-1.09.06-1.35-.43-.25-.49-.06-1.09.43-1.35,2.11-1.09,4.49-1.67,6.88-1.67,8.27,0,15,6.73,15,15s-6.73,15-15,15Z"/>
  <path class="cls-1" d="M14.23,17.77L5.36,6.23c-.44-.55.32-1.31.86-.86,0,0,11.54,8.87,11.54,8.87,2.87,2.44-1.09,6.41-3.54,3.54h0Z"/>
</svg>