<?xml version="1.0" encoding="UTF-8"?>
<svg id="Layer_1" xmlns="http://www.w3.org/2000/svg" version="1.1" viewBox="0 0 720 400">
  <!-- Generator: Adobe Illustrator 30.2.1, SVG Export Plug-In . SVG Version: 2.1.1 Build 1)  -->
  <defs>
    <style>
      .st0 {
        fill: #ffc857;
      }
    </style>
  </defs>
  <g>
    <path class="st0" d="M307.33,224.75c-2.49,0-4.87-.39-7.14-1.17-2.27-.78-4.25-1.91-5.95-3.39-1.7-1.48-2.92-3.23-3.66-5.26l8.2-3.04c.25.72.78,1.39,1.58,2.01.8.62,1.81,1.13,3.01,1.52,1.2.39,2.52.59,3.96.59s2.66-.21,3.88-.62c1.21-.41,2.19-.99,2.94-1.73.75-.74,1.12-1.6,1.12-2.6s-.39-1.82-1.17-2.47c-.78-.65-1.78-1.18-3.01-1.57-1.22-.39-2.48-.69-3.77-.9-3.19-.46-6.04-1.22-8.57-2.26-2.52-1.05-4.51-2.49-5.97-4.34-1.46-1.85-2.18-4.2-2.18-7.05s.78-5.14,2.33-7.19c1.55-2.05,3.6-3.64,6.14-4.78,2.54-1.14,5.29-1.71,8.25-1.71,2.45,0,4.81.39,7.09,1.17,2.28.78,4.27,1.91,5.97,3.39,1.7,1.48,2.92,3.25,3.66,5.32l-8.2,2.98c-.25-.72-.78-1.38-1.58-1.99-.8-.61-1.81-1.11-3.01-1.49-1.2-.38-2.51-.57-3.93-.57-1.35-.02-2.64.18-3.85.6-1.21.42-2.21,1-2.98,1.74-.77.74-1.16,1.58-1.16,2.53,0,1.25.36,2.19,1.09,2.82.73.63,1.69,1.09,2.9,1.36,1.2.27,2.53.52,3.99.73,3,.44,5.76,1.23,8.3,2.36s4.57,2.63,6.1,4.5c1.53,1.87,2.3,4.14,2.3,6.83s-.77,5.14-2.31,7.19c-1.54,2.05-3.58,3.64-6.11,4.78-2.53,1.14-5.29,1.71-8.27,1.71Z"/>
    <path class="st0" d="M334.6,188.61c-1.27,0-2.33-.42-3.2-1.27-.87-.84-1.3-1.89-1.3-3.14s.43-2.29,1.3-3.14c.87-.84,1.92-1.27,3.17-1.27s2.3.42,3.15,1.27c.86.84,1.28,1.89,1.28,3.14s-.42,2.29-1.25,3.14c-.83.84-1.88,1.27-3.15,1.27ZM330.16,192.26h8.74v31.67h-8.74v-31.67Z"/>
    <path class="st0" d="M368.64,192.26h8.74v32.11c0,2.34-.48,4.46-1.43,6.35s-2.24,3.51-3.88,4.86c-1.64,1.35-3.51,2.39-5.64,3.1-2.12.72-4.37,1.08-6.73,1.08-2.24,0-4.38-.44-6.43-1.31-2.05-.88-3.86-2.09-5.45-3.63-1.58-1.54-2.82-3.31-3.71-5.32l7.98-3.64c.44,1.06,1.05,1.96,1.82,2.72.77.76,1.66,1.35,2.66,1.76,1,.41,2.04.62,3.12.62,1.16,0,2.27-.14,3.34-.41,1.07-.27,2.02-.69,2.87-1.24.84-.55,1.51-1.24,2-2.06.48-.82.73-1.78.73-2.88v-3.67c-.97,1.2-2.15,2.18-3.53,2.93-1.38.75-2.98,1.12-4.8,1.12-2.28,0-4.42-.43-6.41-1.3s-3.75-2.06-5.27-3.59c-1.52-1.53-2.71-3.3-3.58-5.3-.87-2.01-1.3-4.16-1.3-6.46s.43-4.45,1.3-6.46c.86-2.01,2.06-3.77,3.58-5.3,1.52-1.53,3.28-2.73,5.27-3.59,2-.87,4.13-1.3,6.41-1.3,1.82,0,3.41.37,4.8,1.12,1.38.75,2.56,1.73,3.53,2.93v-3.23ZM360.44,216.36c1.44,0,2.73-.37,3.9-1.12s2.07-1.75,2.74-2.99c.66-1.25,1-2.63,1-4.15s-.33-2.91-1-4.16c-.67-1.26-1.58-2.25-2.74-2.99s-2.46-1.11-3.9-1.11-2.71.37-3.88,1.11c-1.17.74-2.11,1.74-2.8,2.99-.7,1.26-1.05,2.64-1.05,4.16s.35,2.91,1.05,4.16,1.63,2.25,2.8,2.99c1.17.74,2.47,1.11,3.88,1.11Z"/>
    <path class="st0" d="M414.41,203.79v20.14h-8.74v-17.74c0-1.12-.27-2.13-.81-3.02-.54-.9-1.26-1.61-2.15-2.14-.9-.53-1.9-.79-2.99-.79s-2.1.26-3.01.79c-.91.53-1.63,1.24-2.15,2.14-.53.9-.79,1.91-.79,3.02v17.74h-8.74l-.03-31.67h8.74l.03,2.34c1.06-1.01,2.3-1.81,3.72-2.38,1.43-.57,2.93-.86,4.51-.86,2.3,0,4.39.56,6.26,1.68,1.87,1.12,3.36,2.61,4.48,4.48,1.12,1.87,1.68,3.95,1.68,6.26Z"/>
    <path class="st0" d="M443.35,192.26h8.74v31.67h-8.77l-.41-3.29c-.82,1.22-1.88,2.22-3.17,2.98s-2.8,1.14-4.53,1.14c-2.36,0-4.57-.44-6.62-1.33-2.05-.89-3.85-2.11-5.42-3.67s-2.78-3.37-3.66-5.43-1.31-4.27-1.31-6.64.41-4.37,1.23-6.33c.82-1.96,1.98-3.69,3.48-5.19s3.23-2.67,5.18-3.52c1.95-.84,4.06-1.27,6.32-1.27,1.94,0,3.69.41,5.24,1.24s2.91,1.87,4.07,3.14l-.38-3.48ZM434.99,216.36c1.44,0,2.73-.37,3.9-1.11,1.16-.74,2.08-1.74,2.76-2.99s1.01-2.64,1.01-4.16-.34-2.93-1.01-4.18-1.59-2.24-2.76-2.98c-1.16-.74-2.46-1.11-3.9-1.11s-2.78.37-3.96,1.11-2.12,1.74-2.82,2.99c-.7,1.26-1.05,2.64-1.05,4.16s.35,2.91,1.06,4.16,1.65,2.25,2.84,2.99c1.18.74,2.49,1.11,3.93,1.11Z"/>
    <path class="st0" d="M458.49,223.93v-47.51h8.74v47.51h-8.74Z"/>
    <path class="st0" d="M490.04,223.93v-47.51h8.74v47.51h-8.74Z"/>
    <path class="st0" d="M519.74,224.75c-2.91,0-5.57-.75-7.96-2.25-2.4-1.5-4.31-3.51-5.73-6.03-1.43-2.52-2.14-5.31-2.14-8.38,0-2.32.41-4.49,1.23-6.51.82-2.02,1.96-3.79,3.4-5.32s3.13-2.73,5.05-3.59c1.92-.87,3.97-1.3,6.14-1.3,2.91,0,5.57.75,7.96,2.25s4.31,3.52,5.73,6.05,2.14,5.34,2.14,8.42c0,2.3-.41,4.45-1.23,6.46-.82,2.01-1.96,3.77-3.4,5.3-1.45,1.53-3.13,2.73-5.04,3.59s-3.96,1.3-6.16,1.3ZM519.74,216.01c1.35,0,2.57-.36,3.64-1.09,1.08-.73,1.92-1.69,2.53-2.9.61-1.2.92-2.51.92-3.93s-.32-2.79-.96-4.01c-.64-1.21-1.5-2.18-2.58-2.9-1.08-.72-2.26-1.08-3.55-1.08s-2.53.37-3.61,1.11c-1.08.74-1.93,1.71-2.55,2.91-.62,1.2-.93,2.52-.93,3.96s.32,2.85.96,4.04c.64,1.19,1.5,2.14,2.58,2.83,1.08.7,2.26,1.05,3.55,1.05Z"/>
    <path class="st0" d="M549.93,224.5c-1.63-.13-3.19-.47-4.69-1.03-1.5-.56-2.83-1.32-4.01-2.28-1.17-.96-2.08-2.12-2.74-3.47l7.35-3.17c.23.34.58.7,1.05,1.09.46.39,1.03.73,1.69,1.03.66.3,1.44.44,2.33.44.65,0,1.29-.08,1.9-.24s1.11-.42,1.49-.79c.38-.37.57-.86.57-1.47,0-.68-.24-1.19-.73-1.55-.48-.36-1.07-.63-1.76-.81-.69-.18-1.35-.33-1.98-.46-1.94-.34-3.77-.94-5.5-1.82-1.72-.88-3.12-2.01-4.2-3.4-1.08-1.39-1.62-3.06-1.62-5,0-2.13.56-3.97,1.68-5.53,1.12-1.55,2.58-2.75,4.37-3.59,1.79-.84,3.74-1.27,5.83-1.27,2.47,0,4.76.52,6.87,1.55,2.11,1.03,3.81,2.49,5.1,4.37l-6.9,4.09c-.27-.4-.63-.79-1.06-1.16-.43-.37-.93-.69-1.49-.95-.56-.26-1.16-.42-1.79-.46-.82-.06-1.57-.02-2.25.14-.68.16-1.21.45-1.6.87-.39.42-.59.99-.59,1.71s.31,1.21.92,1.54c.61.33,1.32.57,2.12.73.8.16,1.51.34,2.12.55,1.84.59,3.56,1.35,5.18,2.26,1.61.92,2.92,2.04,3.91,3.37.99,1.33,1.46,2.89,1.39,4.69,0,2.09-.62,3.92-1.87,5.5s-2.86,2.77-4.83,3.58c-1.97.81-4.07,1.12-6.29.93Z"/>
    <path class="st0" d="M585.56,201h-5.7v22.93h-8.74v-22.93h-4.37v-8.74h4.37v-9.94h8.74v9.94h5.7v8.74Z"/>
  </g>
  <path class="st0" d="M236.78,246.62h-33.42l-3.35-3.35h-26.44l-3.35,3.35h-33.42l-3.84-6.65,17.36-30.06-.7-2.62,15.36-26.6,2.61-.7,15.37-26.61h7.68l15.36,26.61,2.62.7,15.36,26.6-.7,2.62,17.36,30.06-3.84,6.65ZM206.71,237.76h22.39l-14.47-25.07.7-2.62-13.45-23.29-2.62-.7-12.48-21.62-12.48,21.62-2.61.7-13.45,23.29.7,2.62-14.47,25.07h22.39l3.35-3.35h33.15l3.35,3.35Z"/>
  <path class="st0" d="M180.75,217.84c0-3.51,2.52-5.98,6.03-5.98s6.03,2.47,6.03,5.98-2.52,6.09-6.03,6.09-6.03-2.58-6.03-6.09ZM182.39,194.64l-.33-8.12h9.44l-.33,8.12-1.32,14.15h-6.14l-1.32-14.15Z"/>
</svg>